<mxfile host="app.diagrams.net" agent="Mozilla/5.0 (Windows NT 10.0; Win64; x64) AppleWebKit/537.36 (KHTML, like Gecko) Chrome/137.0.0.0 Safari/537.36" version="27.1.6">
  <diagram name="PÃ¡gina-1" id="6N35vonZCh0L7vHBL9XW">
    <mxGraphModel grid="1" page="1" gridSize="10" guides="1" tooltips="1" connect="1" arrows="1" fold="1" pageScale="1" pageWidth="827" pageHeight="1169" math="0" shadow="0">
      <root>
        <mxCell id="0" />
        <mxCell id="1" parent="0" />
        <mxCell id="Jr5SV2TmtNF4w4dKXMmj-1" value="Usuario" style="html=1;whiteSpace=wrap;" vertex="1" parent="1">
          <mxGeometry x="50" y="40" width="110" height="50" as="geometry" />
        </mxCell>
        <mxCell id="Jr5SV2TmtNF4w4dKXMmj-2" value="Sistema&lt;span style=&quot;color: rgba(0, 0, 0, 0); font-family: monospace; font-size: 0px; text-align: start; text-wrap-mode: nowrap;&quot;&gt;%3CmxGraphModel%3E%3Croot%3E%3CmxCell%20id%3D%220%22%2F%3E%3CmxCell%20id%3D%221%22%20parent%3D%220%22%2F%3E%3CmxCell%20id%3D%222%22%20value%3D%22Usuario%22%20style%3D%22html%3D1%3BwhiteSpace%3Dwrap%3B%22%20vertex%3D%221%22%20parent%3D%221%22%3E%3CmxGeometry%20x%3D%2270%22%20y%3D%2240%22%20width%3D%22110%22%20height%3D%2250%22%20as%3D%22geometry%22%2F%3E%3C%2FmxCell%3E%3C%2Froot%3E%3C%2FmxGraphModel%3E&lt;/span&gt;" style="html=1;whiteSpace=wrap;" vertex="1" parent="1">
          <mxGeometry x="250" y="40" width="110" height="50" as="geometry" />
        </mxCell>
        <mxCell id="Jr5SV2TmtNF4w4dKXMmj-3" value="Base de datos" style="html=1;whiteSpace=wrap;" vertex="1" parent="1">
          <mxGeometry x="450" y="40" width="110" height="50" as="geometry" />
        </mxCell>
        <mxCell id="Jr5SV2TmtNF4w4dKXMmj-4" value="Usuario" style="html=1;whiteSpace=wrap;" vertex="1" parent="1">
          <mxGeometry x="45" y="720" width="110" height="50" as="geometry" />
        </mxCell>
        <mxCell id="Jr5SV2TmtNF4w4dKXMmj-5" value="Sistema&lt;span style=&quot;color: rgba(0, 0, 0, 0); font-family: monospace; font-size: 0px; text-align: start; text-wrap-mode: nowrap;&quot;&gt;%3CmxGraphModel%3E%3Croot%3E%3CmxCell%20id%3D%220%22%2F%3E%3CmxCell%20id%3D%221%22%20parent%3D%220%22%2F%3E%3CmxCell%20id%3D%222%22%20value%3D%22Usuario%22%20style%3D%22html%3D1%3BwhiteSpace%3Dwrap%3B%22%20vertex%3D%221%22%20parent%3D%221%22%3E%3CmxGeometry%20x%3D%2270%22%20y%3D%2240%22%20width%3D%22110%22%20height%3D%2250%22%20as%3D%22geometry%22%2F%3E%3C%2FmxCell%3E%3C%2Froot%3E%3C%2FmxGraphModel%3E&lt;/span&gt;" style="html=1;whiteSpace=wrap;" vertex="1" parent="1">
          <mxGeometry x="258.75" y="720" width="110" height="50" as="geometry" />
        </mxCell>
        <mxCell id="Jr5SV2TmtNF4w4dKXMmj-6" value="Base de datos" style="html=1;whiteSpace=wrap;" vertex="1" parent="1">
          <mxGeometry x="450" y="720" width="110" height="50" as="geometry" />
        </mxCell>
        <mxCell id="Jr5SV2TmtNF4w4dKXMmj-7" value="" style="endArrow=none;dashed=1;html=1;rounded=0;entryX=0.398;entryY=0.987;entryDx=0;entryDy=0;exitX=0.418;exitY=-0.012;exitDx=0;exitDy=0;exitPerimeter=0;entryPerimeter=0;" edge="1" parent="1" source="Jr5SV2TmtNF4w4dKXMmj-25" target="Jr5SV2TmtNF4w4dKXMmj-1">
          <mxGeometry width="50" height="50" relative="1" as="geometry">
            <mxPoint x="94.17999999999995" y="299.64" as="sourcePoint" />
            <mxPoint x="100" y="90" as="targetPoint" />
          </mxGeometry>
        </mxCell>
        <mxCell id="Jr5SV2TmtNF4w4dKXMmj-8" value="" style="endArrow=none;dashed=1;html=1;rounded=0;entryX=0.5;entryY=1;entryDx=0;entryDy=0;exitX=0.5;exitY=0;exitDx=0;exitDy=0;" edge="1" parent="1" source="Jr5SV2TmtNF4w4dKXMmj-15" target="Jr5SV2TmtNF4w4dKXMmj-3">
          <mxGeometry width="50" height="50" relative="1" as="geometry">
            <mxPoint x="320" y="450" as="sourcePoint" />
            <mxPoint x="320" y="110" as="targetPoint" />
          </mxGeometry>
        </mxCell>
        <mxCell id="Jr5SV2TmtNF4w4dKXMmj-9" value="" style="endArrow=none;dashed=1;html=1;rounded=0;entryX=0.5;entryY=1;entryDx=0;entryDy=0;exitX=0.5;exitY=0;exitDx=0;exitDy=0;" edge="1" parent="1" source="Jr5SV2TmtNF4w4dKXMmj-11" target="Jr5SV2TmtNF4w4dKXMmj-2">
          <mxGeometry width="50" height="50" relative="1" as="geometry">
            <mxPoint x="280" y="320" as="sourcePoint" />
            <mxPoint x="330" y="270" as="targetPoint" />
          </mxGeometry>
        </mxCell>
        <mxCell id="Jr5SV2TmtNF4w4dKXMmj-10" value="" style="endArrow=none;dashed=1;html=1;rounded=0;entryX=0.5;entryY=1;entryDx=0;entryDy=0;exitX=0.5;exitY=0;exitDx=0;exitDy=0;" edge="1" parent="1" target="Jr5SV2TmtNF4w4dKXMmj-11">
          <mxGeometry width="50" height="50" relative="1" as="geometry">
            <mxPoint x="305" y="220" as="sourcePoint" />
            <mxPoint x="305" y="90" as="targetPoint" />
          </mxGeometry>
        </mxCell>
        <mxCell id="Jr5SV2TmtNF4w4dKXMmj-11" value="" style="html=1;points=[[0,0,0,0,5],[0,1,0,0,-5],[1,0,0,0,5],[1,1,0,0,-5]];perimeter=orthogonalPerimeter;outlineConnect=0;targetShapes=umlLifeline;portConstraint=eastwest;newEdgeStyle={&quot;curved&quot;:0,&quot;rounded&quot;:0};" vertex="1" parent="1">
          <mxGeometry x="300" y="130" width="10" height="30" as="geometry" />
        </mxCell>
        <mxCell id="Jr5SV2TmtNF4w4dKXMmj-12" value="" style="endArrow=classic;html=1;rounded=0;entryX=0;entryY=0;entryDx=0;entryDy=5;entryPerimeter=0;" edge="1" parent="1" target="Jr5SV2TmtNF4w4dKXMmj-11">
          <mxGeometry width="50" height="50" relative="1" as="geometry">
            <mxPoint x="100" y="135" as="sourcePoint" />
            <mxPoint x="210" y="110" as="targetPoint" />
          </mxGeometry>
        </mxCell>
        <mxCell id="Jr5SV2TmtNF4w4dKXMmj-13" value="1. Solicita editar&amp;nbsp; perfil" style="text;html=1;align=center;verticalAlign=middle;whiteSpace=wrap;rounded=0;" vertex="1" parent="1">
          <mxGeometry x="100" y="110" width="200" height="20" as="geometry" />
        </mxCell>
        <mxCell id="Jr5SV2TmtNF4w4dKXMmj-14" value="" style="endArrow=none;dashed=1;html=1;rounded=0;exitX=0.5;exitY=0;exitDx=0;exitDy=0;" edge="1" parent="1" source="Jr5SV2TmtNF4w4dKXMmj-6">
          <mxGeometry width="50" height="50" relative="1" as="geometry">
            <mxPoint x="500" y="950" as="sourcePoint" />
            <mxPoint x="505" y="200" as="targetPoint" />
          </mxGeometry>
        </mxCell>
        <mxCell id="Jr5SV2TmtNF4w4dKXMmj-15" value="" style="html=1;points=[[0,0,0,0,5],[0,1,0,0,-5],[1,0,0,0,5],[1,1,0,0,-5]];perimeter=orthogonalPerimeter;outlineConnect=0;targetShapes=umlLifeline;portConstraint=eastwest;newEdgeStyle={&quot;curved&quot;:0,&quot;rounded&quot;:0};" vertex="1" parent="1">
          <mxGeometry x="500" y="170" width="10" height="30" as="geometry" />
        </mxCell>
        <mxCell id="Jr5SV2TmtNF4w4dKXMmj-16" value="" style="endArrow=classic;html=1;rounded=0;entryX=0;entryY=0;entryDx=0;entryDy=5;entryPerimeter=0;" edge="1" parent="1" target="Jr5SV2TmtNF4w4dKXMmj-15">
          <mxGeometry width="50" height="50" relative="1" as="geometry">
            <mxPoint x="310" y="175" as="sourcePoint" />
            <mxPoint x="450" y="130" as="targetPoint" />
          </mxGeometry>
        </mxCell>
        <mxCell id="Jr5SV2TmtNF4w4dKXMmj-17" value="2. Consultar datos actuales" style="text;html=1;align=center;verticalAlign=middle;whiteSpace=wrap;rounded=0;" vertex="1" parent="1">
          <mxGeometry x="310" y="150" width="170" height="20" as="geometry" />
        </mxCell>
        <mxCell id="Jr5SV2TmtNF4w4dKXMmj-18" value="" style="endArrow=none;dashed=1;html=1;rounded=0;exitX=0.5;exitY=0;exitDx=0;exitDy=0;entryX=0.5;entryY=0;entryDx=0;entryDy=0;" edge="1" parent="1" source="Jr5SV2TmtNF4w4dKXMmj-19">
          <mxGeometry width="50" height="50" relative="1" as="geometry">
            <mxPoint x="301.25" y="657" as="sourcePoint" />
            <mxPoint x="305" y="220" as="targetPoint" />
            <Array as="points" />
          </mxGeometry>
        </mxCell>
        <mxCell id="Jr5SV2TmtNF4w4dKXMmj-19" value="" style="html=1;points=[[0,0,0,0,5],[0,1,0,0,-5],[1,0,0,0,5],[1,1,0,0,-5]];perimeter=orthogonalPerimeter;outlineConnect=0;targetShapes=umlLifeline;portConstraint=eastwest;newEdgeStyle={&quot;curved&quot;:0,&quot;rounded&quot;:0};" vertex="1" parent="1">
          <mxGeometry x="300" y="230" width="10" height="30" as="geometry" />
        </mxCell>
        <mxCell id="Jr5SV2TmtNF4w4dKXMmj-20" value="" style="endArrow=none;dashed=1;html=1;rounded=0;exitX=0.5;exitY=0;exitDx=0;exitDy=0;" edge="1" parent="1" source="Jr5SV2TmtNF4w4dKXMmj-36" target="Jr5SV2TmtNF4w4dKXMmj-19">
          <mxGeometry width="50" height="50" relative="1" as="geometry">
            <mxPoint x="310" y="550" as="sourcePoint" />
            <mxPoint x="305" y="270" as="targetPoint" />
            <Array as="points" />
          </mxGeometry>
        </mxCell>
        <mxCell id="Jr5SV2TmtNF4w4dKXMmj-21" value="3. Devolver datos" style="text;html=1;align=center;verticalAlign=middle;whiteSpace=wrap;rounded=0;" vertex="1" parent="1">
          <mxGeometry x="310" y="210" width="170" height="20" as="geometry" />
        </mxCell>
        <mxCell id="Jr5SV2TmtNF4w4dKXMmj-22" value="" style="endArrow=classic;html=1;rounded=0;fontSize=12;startSize=8;endSize=8;curved=1;entryX=1;entryY=0;entryDx=0;entryDy=5;entryPerimeter=0;" edge="1" parent="1" target="Jr5SV2TmtNF4w4dKXMmj-25">
          <mxGeometry width="50" height="50" relative="1" as="geometry">
            <mxPoint x="300" y="285" as="sourcePoint" />
            <mxPoint x="308.75" y="440" as="targetPoint" />
          </mxGeometry>
        </mxCell>
        <mxCell id="Jr5SV2TmtNF4w4dKXMmj-23" value="" style="endArrow=classic;html=1;rounded=0;fontSize=12;startSize=8;endSize=8;entryX=1;entryY=0;entryDx=0;entryDy=5;entryPerimeter=0;" edge="1" parent="1" target="Jr5SV2TmtNF4w4dKXMmj-19">
          <mxGeometry width="50" height="50" relative="1" as="geometry">
            <mxPoint x="500" y="235" as="sourcePoint" />
            <mxPoint x="311.25" y="280" as="targetPoint" />
          </mxGeometry>
        </mxCell>
        <mxCell id="Jr5SV2TmtNF4w4dKXMmj-24" value="" style="endArrow=none;dashed=1;html=1;rounded=0;entryX=0.398;entryY=0.987;entryDx=0;entryDy=0;exitX=0.418;exitY=-0.012;exitDx=0;exitDy=0;exitPerimeter=0;entryPerimeter=0;" edge="1" parent="1" target="Jr5SV2TmtNF4w4dKXMmj-25">
          <mxGeometry width="50" height="50" relative="1" as="geometry">
            <mxPoint x="94.17999999999995" y="299.64" as="sourcePoint" />
            <mxPoint x="94" y="89" as="targetPoint" />
          </mxGeometry>
        </mxCell>
        <mxCell id="Jr5SV2TmtNF4w4dKXMmj-25" value="" style="html=1;points=[[0,0,0,0,5],[0,1,0,0,-5],[1,0,0,0,5],[1,1,0,0,-5]];perimeter=orthogonalPerimeter;outlineConnect=0;targetShapes=umlLifeline;portConstraint=eastwest;newEdgeStyle={&quot;curved&quot;:0,&quot;rounded&quot;:0};" vertex="1" parent="1">
          <mxGeometry x="90" y="280" width="10" height="30" as="geometry" />
        </mxCell>
        <mxCell id="Jr5SV2TmtNF4w4dKXMmj-26" value="4. Mostrar formulario" style="text;html=1;align=center;verticalAlign=middle;whiteSpace=wrap;rounded=0;" vertex="1" parent="1">
          <mxGeometry x="115" y="260" width="170" height="20" as="geometry" />
        </mxCell>
        <mxCell id="Jr5SV2TmtNF4w4dKXMmj-27" value="" style="endArrow=none;dashed=1;html=1;rounded=0;exitX=0.462;exitY=0.012;exitDx=0;exitDy=0;exitPerimeter=0;" edge="1" parent="1" source="Jr5SV2TmtNF4w4dKXMmj-55" target="Jr5SV2TmtNF4w4dKXMmj-25">
          <mxGeometry width="50" height="50" relative="1" as="geometry">
            <mxPoint x="300" y="1190" as="sourcePoint" />
            <mxPoint x="300" y="380" as="targetPoint" />
            <Array as="points" />
          </mxGeometry>
        </mxCell>
        <mxCell id="Jr5SV2TmtNF4w4dKXMmj-37" value="" style="endArrow=classic;html=1;rounded=0;entryX=0;entryY=0;entryDx=0;entryDy=5;entryPerimeter=0;" edge="1" parent="1" target="Jr5SV2TmtNF4w4dKXMmj-36">
          <mxGeometry width="50" height="50" relative="1" as="geometry">
            <mxPoint x="100" y="335" as="sourcePoint" />
            <mxPoint x="440" y="130" as="targetPoint" />
          </mxGeometry>
        </mxCell>
        <mxCell id="Jr5SV2TmtNF4w4dKXMmj-38" value="5. Enviar datos actualizados" style="text;html=1;align=center;verticalAlign=middle;whiteSpace=wrap;rounded=0;" vertex="1" parent="1">
          <mxGeometry x="100" y="310" width="200" height="20" as="geometry" />
        </mxCell>
        <mxCell id="Jr5SV2TmtNF4w4dKXMmj-39" value="" style="endArrow=none;dashed=1;html=1;rounded=0;exitX=0.468;exitY=0.052;exitDx=0;exitDy=0;exitPerimeter=0;" edge="1" parent="1" source="Jr5SV2TmtNF4w4dKXMmj-5" target="Jr5SV2TmtNF4w4dKXMmj-36">
          <mxGeometry width="50" height="50" relative="1" as="geometry">
            <mxPoint x="309" y="490" as="sourcePoint" />
            <mxPoint x="309" y="260" as="targetPoint" />
            <Array as="points">
              <mxPoint x="310" y="600" />
              <mxPoint x="310" y="580" />
              <mxPoint x="310" y="550" />
              <mxPoint x="310" y="490" />
            </Array>
          </mxGeometry>
        </mxCell>
        <mxCell id="Jr5SV2TmtNF4w4dKXMmj-36" value="" style="html=1;points=[[0,0,0,0,5],[0,1,0,0,-5],[1,0,0,0,5],[1,1,0,0,-5]];perimeter=orthogonalPerimeter;outlineConnect=0;targetShapes=umlLifeline;portConstraint=eastwest;newEdgeStyle={&quot;curved&quot;:0,&quot;rounded&quot;:0};" vertex="1" parent="1">
          <mxGeometry x="300" y="330" width="10" height="30" as="geometry" />
        </mxCell>
        <mxCell id="Jr5SV2TmtNF4w4dKXMmj-40" value="" style="endArrow=classic;html=1;rounded=0;edgeStyle=orthogonalEdgeStyle;" edge="1" parent="1">
          <mxGeometry width="50" height="50" relative="1" as="geometry">
            <mxPoint x="310" y="390" as="sourcePoint" />
            <mxPoint x="310" y="420" as="targetPoint" />
            <Array as="points">
              <mxPoint x="340" y="391" />
              <mxPoint x="340" y="420" />
              <mxPoint x="310" y="420" />
            </Array>
          </mxGeometry>
        </mxCell>
        <mxCell id="Jr5SV2TmtNF4w4dKXMmj-41" value="6. Validar datos" style="text;html=1;align=center;verticalAlign=middle;whiteSpace=wrap;rounded=0;" vertex="1" parent="1">
          <mxGeometry x="340" y="390" width="90" height="30" as="geometry" />
        </mxCell>
        <mxCell id="Jr5SV2TmtNF4w4dKXMmj-42" value="alt" style="shape=umlFrame;whiteSpace=wrap;html=1;pointerEvents=0;" vertex="1" parent="1">
          <mxGeometry x="80" y="430" width="440" height="230" as="geometry" />
        </mxCell>
        <mxCell id="Jr5SV2TmtNF4w4dKXMmj-43" value="" style="endArrow=classic;html=1;rounded=0;entryX=0;entryY=0;entryDx=0;entryDy=5;entryPerimeter=0;" edge="1" parent="1" target="Jr5SV2TmtNF4w4dKXMmj-44">
          <mxGeometry width="50" height="50" relative="1" as="geometry">
            <mxPoint x="310" y="475" as="sourcePoint" />
            <mxPoint x="640" y="270" as="targetPoint" />
          </mxGeometry>
        </mxCell>
        <mxCell id="Jr5SV2TmtNF4w4dKXMmj-44" value="" style="html=1;points=[[0,0,0,0,5],[0,1,0,0,-5],[1,0,0,0,5],[1,1,0,0,-5]];perimeter=orthogonalPerimeter;outlineConnect=0;targetShapes=umlLifeline;portConstraint=eastwest;newEdgeStyle={&quot;curved&quot;:0,&quot;rounded&quot;:0};" vertex="1" parent="1">
          <mxGeometry x="500" y="470" width="10" height="30" as="geometry" />
        </mxCell>
        <mxCell id="Jr5SV2TmtNF4w4dKXMmj-45" value="7. Actualizar datos" style="text;html=1;align=center;verticalAlign=middle;whiteSpace=wrap;rounded=0;" vertex="1" parent="1">
          <mxGeometry x="310" y="450" width="200" height="20" as="geometry" />
        </mxCell>
        <mxCell id="Jr5SV2TmtNF4w4dKXMmj-46" value="" style="html=1;points=[[0,0,0,0,5],[0,1,0,0,-5],[1,0,0,0,5],[1,1,0,0,-5]];perimeter=orthogonalPerimeter;outlineConnect=0;targetShapes=umlLifeline;portConstraint=eastwest;newEdgeStyle={&quot;curved&quot;:0,&quot;rounded&quot;:0};" vertex="1" parent="1">
          <mxGeometry x="310" y="510" width="10" height="30" as="geometry" />
        </mxCell>
        <mxCell id="Jr5SV2TmtNF4w4dKXMmj-48" value="" style="endArrow=classic;html=1;rounded=0;entryX=1;entryY=0;entryDx=0;entryDy=5;entryPerimeter=0;" edge="1" parent="1" target="Jr5SV2TmtNF4w4dKXMmj-46">
          <mxGeometry width="50" height="50" relative="1" as="geometry">
            <mxPoint x="500" y="515" as="sourcePoint" />
            <mxPoint x="570" y="470" as="targetPoint" />
          </mxGeometry>
        </mxCell>
        <mxCell id="Jr5SV2TmtNF4w4dKXMmj-49" value="8. Confirmar actualizaciÃ³n&amp;nbsp;" style="text;html=1;align=center;verticalAlign=middle;whiteSpace=wrap;rounded=0;" vertex="1" parent="1">
          <mxGeometry x="310" y="490" width="200" height="20" as="geometry" />
        </mxCell>
        <mxCell id="Jr5SV2TmtNF4w4dKXMmj-50" value="" style="html=1;points=[[0,0,0,0,5],[0,1,0,0,-5],[1,0,0,0,5],[1,1,0,0,-5]];perimeter=orthogonalPerimeter;outlineConnect=0;targetShapes=umlLifeline;portConstraint=eastwest;newEdgeStyle={&quot;curved&quot;:0,&quot;rounded&quot;:0};" vertex="1" parent="1">
          <mxGeometry x="95" y="540" width="10" height="30" as="geometry" />
        </mxCell>
        <mxCell id="Jr5SV2TmtNF4w4dKXMmj-52" value="9. Notificar Ã©xito de actualizaciÃ³n" style="text;html=1;align=center;verticalAlign=middle;whiteSpace=wrap;rounded=0;" vertex="1" parent="1">
          <mxGeometry x="105" y="520" width="200" height="20" as="geometry" />
        </mxCell>
        <mxCell id="Jr5SV2TmtNF4w4dKXMmj-54" value="" style="endArrow=open;endSize=12;dashed=1;html=1;rounded=0;entryX=1;entryY=0;entryDx=0;entryDy=5;entryPerimeter=0;" edge="1" parent="1">
          <mxGeometry width="160" relative="1" as="geometry">
            <mxPoint x="307.5" y="544.5" as="sourcePoint" />
            <mxPoint x="102.5" y="544.5" as="targetPoint" />
          </mxGeometry>
        </mxCell>
        <mxCell id="Jr5SV2TmtNF4w4dKXMmj-56" value="" style="endArrow=none;dashed=1;html=1;rounded=0;exitX=0.462;exitY=0.012;exitDx=0;exitDy=0;exitPerimeter=0;" edge="1" parent="1" source="Jr5SV2TmtNF4w4dKXMmj-4" target="Jr5SV2TmtNF4w4dKXMmj-55">
          <mxGeometry width="50" height="50" relative="1" as="geometry">
            <mxPoint x="96" y="721" as="sourcePoint" />
            <mxPoint x="95" y="310" as="targetPoint" />
            <Array as="points">
              <mxPoint x="95" y="670" />
              <mxPoint x="95" y="650" />
              <mxPoint x="95" y="640" />
              <mxPoint x="95" y="630" />
              <mxPoint x="95" y="610" />
              <mxPoint x="95" y="600" />
              <mxPoint x="95" y="580" />
              <mxPoint x="95" y="540" />
              <mxPoint x="95" y="460" />
            </Array>
          </mxGeometry>
        </mxCell>
        <mxCell id="Jr5SV2TmtNF4w4dKXMmj-55" value="" style="html=1;points=[[0,0,0,0,5],[0,1,0,0,-5],[1,0,0,0,5],[1,1,0,0,-5]];perimeter=orthogonalPerimeter;outlineConnect=0;targetShapes=umlLifeline;portConstraint=eastwest;newEdgeStyle={&quot;curved&quot;:0,&quot;rounded&quot;:0};" vertex="1" parent="1">
          <mxGeometry x="90" y="620" width="10" height="30" as="geometry" />
        </mxCell>
        <mxCell id="Jr5SV2TmtNF4w4dKXMmj-57" value="" style="endArrow=open;endSize=12;dashed=1;html=1;rounded=0;entryX=1;entryY=0;entryDx=0;entryDy=5;entryPerimeter=0;" edge="1" parent="1" target="Jr5SV2TmtNF4w4dKXMmj-55">
          <mxGeometry width="160" relative="1" as="geometry">
            <mxPoint x="310" y="625" as="sourcePoint" />
            <mxPoint x="100" y="630" as="targetPoint" />
          </mxGeometry>
        </mxCell>
        <mxCell id="Jr5SV2TmtNF4w4dKXMmj-58" value="10. Notificar error: No se ejecutaron los datos&amp;nbsp;" style="text;html=1;align=center;verticalAlign=middle;whiteSpace=wrap;rounded=0;" vertex="1" parent="1">
          <mxGeometry x="105" y="600" width="200" height="20" as="geometry" />
        </mxCell>
      </root>
    </mxGraphModel>
  </diagram>
</mxfile>
